<?xml version="1.0" encoding="UTF-8"?>
<svg version="1.1" xmlns="http://www.w3.org/2000/svg" width="500" height="500">
<path d="M0 0 C165 0 330 0 500 0 C500 165 500 330 500 500 C335 500 170 500 0 500 C0 335 0 170 0 0 Z " fill="#0F1418" transform="translate(0,0)"/>
<path d="M0 0 C18.15 0 36.3 0 55 0 C55 13.51927438 55 13.51927438 54.6328125 19.58203125 C54.57435905 20.56283913 54.57435905 20.56283913 54.51472473 21.5634613 C54.38900901 23.64675704 54.25748703 25.72962476 54.125 27.8125 C54.08053741 28.52845337 54.03607483 29.24440674 53.99026489 29.98205566 C53.4036959 39.41279462 52.74595303 48.83530937 51.9375 58.25 C51.85838379 59.17659424 51.77926758 60.10318848 51.69775391 61.05786133 C51.33344083 65.09776493 50.92434939 69.04083976 50 73 C50.99 73 51.98 73 53 73 C53.13051758 72.02667725 53.26103516 71.05335449 53.39550781 70.05053711 C54.0132218 65.73539264 54.83260913 61.46815185 55.671875 57.19140625 C55.83467453 56.35508163 55.99747406 55.51875702 56.16520691 54.65708923 C56.69134774 51.95847278 57.22038572 49.26043678 57.75 46.5625 C57.92918976 45.64758789 58.10837952 44.73267578 58.29299927 43.79003906 C60.46875891 32.68554067 62.65567716 21.58326432 64.9375 10.5 C65.23575684 9.03542358 65.23575684 9.03542358 65.54003906 7.54125977 C65.72147461 6.67170654 65.90291016 5.80215332 66.08984375 4.90625 C66.24316162 4.16697266 66.39647949 3.42769531 66.55444336 2.66601562 C67 1 67 1 68 0 C70.46444057 -0.09500548 72.90074626 -0.12557985 75.36547852 -0.11352539 C76.13615662 -0.11367142 76.90683472 -0.11381744 77.7008667 -0.1139679 C80.26024139 -0.1132686 82.8195442 -0.10547545 85.37890625 -0.09765625 C87.14867615 -0.09579213 88.91844656 -0.0943682 90.68821716 -0.09336853 C95.35551366 -0.08954288 100.02277923 -0.0797122 104.69006348 -0.06866455 C109.44897035 -0.05845144 114.20788221 -0.05387113 118.96679688 -0.04882812 C128.31121153 -0.03808997 137.6556032 -0.02101299 147 0 C146.05210176 1.12012874 145.10215999 2.23852836 144.15136719 3.35620117 C143.62258972 3.97919601 143.09381226 4.60219086 142.54901123 5.24406433 C140.59717117 7.45664067 138.48134844 9.38440529 136.25 11.3125 C132.66356543 14.47351666 129.23220605 17.72130956 125.875 21.125 C123.02069717 24.01481515 120.15198622 26.80105453 117.0625 29.4375 C113.71074904 32.30172355 110.59443583 35.36334093 107.5 38.5 C103.8315278 42.2184599 100.06850774 45.73668192 96.09375 49.125 C92.95710878 51.93393243 90.03081265 54.94820294 87.07519531 57.94433594 C83.79513061 61.25179158 80.39330603 64.34096693 76.859375 67.37109375 C73.76750095 70.07973131 70.65481398 72.85570469 68 76 C68 76.66 68 77.32 68 78 C68.66 78 69.32 78 70 78 C71.02383911 76.85079284 71.99384347 75.65340952 72.9375 74.4375 C77.7004024 68.80223442 83.97120777 64.34293074 91 62 C100.35617771 61.35218293 108.62078587 61.28944355 117 66 C117.76699219 66.42410156 118.53398437 66.84820312 119.32421875 67.28515625 C133.81360093 76.11654539 140.34069966 90.75725774 144.2734375 106.625 C145.55705946 112.58763106 146.1494088 118.22088297 146.1328125 124.3203125 C146.13376923 125.10139374 146.13472595 125.88247498 146.13571167 126.68722534 C146.13638899 128.32940756 146.13456608 129.97159253 146.13037109 131.61376953 C146.12500196 134.12408448 146.13033869 136.63422171 146.13671875 139.14453125 C146.13605817 140.74479206 146.13477743 142.34505276 146.1328125 143.9453125 C146.13483673 144.69330109 146.13686096 145.44128967 146.13894653 146.21194458 C146.12318277 149.71799745 145.85766374 152.56934504 145 156 C123.88 156 102.76 156 81 156 C82 146 82 146 83 143 C84.03062546 135.37009975 84.21046952 127.688678 84.25 120 C84.270625 118.99710937 84.29125 117.99421875 84.3125 116.9609375 C84.36015244 107.74019118 83.18002483 98.23945765 77 91 C74.24755639 88.4441595 72.38017073 87.05095333 68.56640625 86.91015625 C64.25056486 87.26286246 59.72030957 87.67480652 56 90 C54.67518454 92.39529669 54.67518454 92.39529669 54 95 C53.505 96.485 53.505 96.485 53 98 C51.89056749 111.09983776 54.68107265 124.28170909 56.8671875 137.140625 C57.00471436 137.94991455 57.14224121 138.7592041 57.28393555 139.59301758 C57.54497898 141.10953303 57.8116913 142.62508828 58.08520508 144.1394043 C58.80479078 148.2421528 59 151.77058297 59 156 C39.53 156 20.06 156 0 156 C0 104.52 0 53.04 0 0 Z " fill="#FCFCFC" transform="translate(225,183)"/>
<path d="M0 0 C21.12 0 42.24 0 64 0 C68.07083315 11.04940427 72.12170436 22.05291641 75.85548401 33.21304321 C76.26504428 34.43544645 76.26504428 34.43544645 76.68287849 35.68254471 C76.96413015 36.52207058 77.24538181 37.36159645 77.53515625 38.2265625 C78.14153552 40.02941635 78.74818635 41.83217887 79.35508728 43.63485718 C80.94169298 48.34949965 82.5252416 53.06516254 84.10791016 57.78112793 C86.60341515 65.21562662 89.10328335 72.64865972 91.60352707 80.08156586 C92.22381828 81.92586679 92.84391816 83.77023208 93.46382523 85.61466217 C96.93405561 95.93880122 100.42166796 106.25664705 103.94873047 116.56152344 C104.26972812 117.49957762 104.59072577 118.4376318 104.92145061 119.40411186 C106.45058251 123.87064863 107.98246104 128.33621958 109.51832581 132.80044556 C110.06880546 134.40520245 110.61925759 136.00996879 111.16967773 137.61474609 C111.53460862 138.67106798 111.53460862 138.67106798 111.90691185 139.74872971 C113.75201843 145.13562016 115.35999988 150.53333294 117 156 C93.9 156 70.8 156 47 156 C44.68965517 140.98275862 44.68965517 140.98275862 43.875 134.9375 C43.70742187 133.70902344 43.53984375 132.48054687 43.3671875 131.21484375 C43 128 43 128 43 124 C36.07 124 29.14 124 22 124 C21.67 127.3 21.34 130.6 21 134 C20.01 141.26 19.02 148.52 18 156 C-5.1 156 -28.2 156 -52 156 C-50.65470687 149.94618092 -49.23088545 144.28103652 -47.24121094 138.45898438 C-46.97079987 137.65546036 -46.70038879 136.85193634 -46.42178345 136.02406311 C-45.53041937 133.3791032 -44.6324599 130.73643467 -43.734375 128.09375 C-43.09777771 126.20956273 -42.46157594 124.32524179 -41.82574463 122.4407959 C-40.14527098 117.4640605 -38.45912081 112.48926608 -36.77185059 107.51483154 C-35.10986994 102.6113831 -33.45372247 97.70596596 -31.796875 92.80078125 C-25.65307841 74.61998087 -19.48173015 56.44850658 -13.287117 38.28495789 C-12.70257084 36.57094249 -12.11826465 34.85684523 -11.53423309 33.14265442 C-10.72204071 30.75948202 -9.90857012 28.3767496 -9.09472656 25.99414062 C-8.86950569 25.33281128 -8.64428482 24.67148193 -8.41223907 23.9901123 C-5.66939566 15.97121446 -2.82106915 7.99302926 0 0 Z " fill="#FDFDFD" transform="translate(105,183)"/>
<path d="M0 0 C6.1889407 3.33159451 10.78631396 8.8343531 12.9375 15.5 C13.84729315 22.57734436 13.25636914 28.6905477 8.9375 34.5 C3.80014117 40.22262756 -1.7292219 43.03405612 -9.33203125 43.8515625 C-17.27771853 44.17868722 -23.63276497 43.41963213 -30.0625 38.5 C-36.37943254 31.97637846 -37.45131247 26.45262246 -37.33203125 17.5390625 C-36.85129986 12.11864187 -35.17239971 8.43695711 -31.15625 4.75 C-29.1742934 3.21176503 -27.20073899 1.81134188 -25.0625 0.5 C-24.47855469 0.12359375 -23.89460938 -0.2528125 -23.29296875 -0.640625 C-16.73312927 -3.16805877 -6.51342242 -2.5467707 0 0 Z " fill="#1FB0A4" transform="translate(422.0625,297.5)"/>
<path d="M0 0 C1.32 0 2.64 0 4 0 C5.45860871 9.28361541 6.5692141 18.60084381 7.625 27.9375 C7.76010986 29.11030518 7.89521973 30.28311035 8.03442383 31.49145508 C8.15970459 32.61704834 8.28498535 33.7426416 8.4140625 34.90234375 C8.5270166 35.90773193 8.6399707 36.91312012 8.75634766 37.94897461 C9.02313241 41.28966501 9 44.64867393 9 48 C4.38 48 -0.24 48 -5 48 C-4.4070215 36.9144229 -3.38005855 26.00346681 -1.9375 15 C-1.74887738 13.53131049 -1.5607246 12.06256056 -1.37304688 10.59375 C-0.92074234 7.06179153 -0.46221293 3.5306772 0 0 Z " fill="#15191D" transform="translate(135,242)"/>
<path d="M0 0 C0.66 0.33 1.32 0.66 2 1 C1.09507812 1.85271484 1.09507812 1.85271484 0.171875 2.72265625 C-4.46508319 7.20255618 -8.16075618 11.19806697 -11 17 C-11.99 16.67 -12.98 16.34 -14 16 C-12.34136495 11.67495164 -9.128959 8.90581175 -5.875 5.75 C-5.31167969 5.19570312 -4.74835938 4.64140625 -4.16796875 4.0703125 C-2.78313972 2.70895515 -1.39216796 1.35385141 0 0 Z " fill="#262B2F" transform="translate(306,245)"/>
</svg>
